<svg width="28" height="28" viewBox="0 0 28 28" fill="none" xmlns="http://www.w3.org/2000/svg">
<path d="M26.2547 9.41697C26.2413 8.40926 26.0523 7.41157 25.6963 6.46852C25.3876 5.67307 24.916 4.95066 24.3118 4.34744C23.7076 3.74422 22.984 3.27347 22.1872 2.96525C21.2547 2.6158 20.2696 2.42684 19.2738 2.40643C17.9917 2.34922 17.5853 2.33325 14.3307 2.33325C11.0761 2.33325 10.659 2.33325 9.38623 2.40643C8.39088 2.42699 7.40624 2.61595 6.47419 2.96525C5.67729 3.27325 4.95356 3.74393 4.34931 4.34718C3.74506 4.95042 3.2736 5.67295 2.96508 6.46852C2.61435 7.39874 2.42549 8.38196 2.40666 9.37572C2.34936 10.657 2.33203 11.0628 2.33203 14.312C2.33203 17.5611 2.33203 17.9762 2.40666 19.2482C2.42666 20.2434 2.61457 21.2254 2.96508 22.1581C3.27412 22.9534 3.74593 23.6756 4.35038 24.2786C4.95483 24.8816 5.67863 25.3521 6.47552 25.66C7.40502 26.0235 8.38984 26.226 9.38756 26.2587C10.671 26.316 11.0775 26.3333 14.332 26.3333C17.5866 26.3333 18.0037 26.3333 19.2765 26.2587C20.2723 26.2392 21.2574 26.0507 22.1899 25.7013C22.9864 25.3927 23.7099 24.9218 24.3141 24.3186C24.9182 23.7155 25.3899 22.9932 25.699 22.198C26.0495 21.2666 26.2374 20.2847 26.2574 19.2881C26.3147 18.0082 26.332 17.6024 26.332 14.3519C26.3294 11.1027 26.3294 10.6903 26.2547 9.41697ZM14.3227 20.4563C10.9189 20.4563 8.16144 17.7035 8.16144 14.3053C8.16144 10.9072 10.9189 8.1543 14.3227 8.1543C15.9568 8.1543 17.5239 8.80235 18.6794 9.95589C19.8348 11.1094 20.484 12.674 20.484 14.3053C20.484 15.9367 19.8348 17.5012 18.6794 18.6547C17.5239 19.8083 15.9568 20.4563 14.3227 20.4563ZM20.7292 9.36108C19.9335 9.36108 19.2925 8.71977 19.2925 7.92678C19.2925 7.73851 19.3296 7.55209 19.4018 7.37815C19.474 7.20421 19.5798 7.04617 19.7131 6.91304C19.8464 6.77992 20.0048 6.67431 20.179 6.60227C20.3532 6.53022 20.5399 6.49314 20.7285 6.49314C20.9171 6.49314 21.1038 6.53022 21.2781 6.60227C21.4523 6.67431 21.6106 6.77992 21.7439 6.91304C21.8773 7.04617 21.9831 7.20421 22.0552 7.37815C22.1274 7.55209 22.1646 7.73851 22.1646 7.92678C22.1646 8.71977 21.5222 9.36108 20.7292 9.36108Z" fill="#737373"/>
<path d="M14.3224 18.3008C16.5328 18.3008 18.3246 16.5119 18.3246 14.3053C18.3246 12.0986 16.5328 10.3097 14.3224 10.3097C12.112 10.3097 10.3202 12.0986 10.3202 14.3053C10.3202 16.5119 12.112 18.3008 14.3224 18.3008Z" fill="#737373"/>
</svg>
