<svg width="25" height="25" viewBox="0 0 25 25" fill="none" xmlns="http://www.w3.org/2000/svg">
<path d="M12.3529 0.357666C5.73396 0.357666 0.352905 5.73872 0.352905 12.3577C0.352905 18.9766 5.73396 24.3577 12.3529 24.3577C18.9719 24.3577 24.3529 18.9766 24.3529 12.3577C24.3529 5.73872 18.9719 0.357666 12.3529 0.357666ZM21.3719 7.75977H18.3403C17.9361 5.94082 17.3297 4.34925 16.5213 3.11136C18.6182 4.07136 20.3361 5.71345 21.3719 7.75977ZM22.4834 12.3577C22.4834 13.2924 22.3571 14.2271 22.1045 15.0861H18.6687C18.7697 14.2019 18.8203 13.2924 18.8203 12.3577C18.8203 11.4229 18.7697 10.5135 18.6687 9.62925H22.1297C22.3571 10.4882 22.4834 11.4229 22.4834 12.3577ZM2.22239 12.3577C2.22239 11.4229 2.3487 10.4882 2.60133 9.62925H6.06237C5.96132 10.5135 5.9108 11.4229 5.9108 12.3577C5.9108 13.2924 5.96132 14.2019 6.06237 15.0861H2.60133C2.3487 14.2271 2.22239 13.2924 2.22239 12.3577ZM7.75501 12.3577C7.75501 11.4482 7.83079 10.5387 7.95711 9.62925H11.4434V15.0861H7.95711C7.83079 14.1766 7.75501 13.2671 7.75501 12.3577ZM13.2876 2.4545C14.6771 3.11135 15.7887 5.23346 16.395 7.78504H13.2876V2.4545ZM11.4182 2.4545V7.78504H8.3108C8.91712 5.23346 10.0287 3.11135 11.4182 2.4545ZM11.4182 16.9556V22.2861C10.0287 21.6293 8.91712 19.5071 8.3108 16.9556H11.4182ZM13.2876 22.2608V16.9303H16.395C15.7887 19.4819 14.6771 21.604 13.2876 22.2608ZM13.2876 15.0861V9.62925H16.774C16.9003 10.5387 16.9761 11.4482 16.9761 12.3577C16.9761 13.2671 16.9003 14.1766 16.774 15.0861H13.2876ZM8.18448 3.13661C7.40133 4.37451 6.76974 5.96609 6.36553 7.78504H3.33395C4.36974 5.71346 6.08764 4.07135 8.18448 3.13661ZM3.33395 16.9556H6.36553C6.76974 18.7745 7.37606 20.3661 8.18448 21.604C6.08764 20.644 4.36974 19.0019 3.33395 16.9556ZM16.5213 21.5787C17.3045 20.3408 17.9361 18.7492 18.3403 16.9303H21.3719C20.3361 19.0019 18.6182 20.644 16.5213 21.5787Z" fill="#737373"/>
</svg>
