<svg width="68" height="69" viewBox="0 0 68 69" fill="none" xmlns="http://www.w3.org/2000/svg">
<path fill-rule="evenodd" clip-rule="evenodd" d="M49.0347 25.188H59.911C59.911 16.4439 54.6785 11.3358 45.813 11.3358H22.598C13.7325 11.3358 8.5 16.4439 8.5 25.0764V43.9252C8.5 52.5577 13.7325 57.6658 22.598 57.6658H45.813C54.6785 57.6658 59.911 52.5577 59.911 43.9252V43.1222H49.0347C43.987 43.1222 39.895 39.1274 39.895 34.1997C39.895 29.2719 43.987 25.2772 49.0347 25.2772V25.188ZM49.0347 29.0246H57.9916C59.0517 29.0246 59.911 29.8635 59.911 30.8984V37.4118C59.8987 38.4416 59.0465 39.2735 57.9916 39.2855H49.2404C46.685 39.3191 44.4504 37.611 43.8708 35.1812C43.5805 33.6728 43.988 32.1163 44.984 30.9288C45.98 29.7414 47.4627 29.0444 49.0347 29.0246ZM49.4232 35.8727H50.2686C51.3538 35.8727 52.2336 35.0138 52.2336 33.9543C52.2336 32.8949 51.3538 32.036 50.2686 32.036H49.4232C48.9041 32.03 48.4042 32.2271 48.035 32.5834C47.6659 32.9396 47.4581 33.4253 47.4581 33.932C47.458 34.9951 48.3342 35.8604 49.4232 35.8727ZM20.6787 25.188H35.188C36.2733 25.188 37.1531 24.3291 37.1531 23.2696C37.1531 22.2102 36.2733 21.3513 35.188 21.3513H20.6787C19.6023 21.3512 18.7262 22.1966 18.7137 23.2473C18.7136 24.3105 19.5897 25.1758 20.6787 25.188Z" stroke="#867491" stroke-width="1.36554"/>
<g filter="url(#filter0_b_16_1093)">
<path fill-rule="evenodd" clip-rule="evenodd" d="M49.0195 25.1686H59.8917C59.8917 16.4368 54.6612 11.3358 45.799 11.3358H22.5927C13.7305 11.3358 8.5 16.4368 8.5 25.0572V43.8795C8.5 52.4999 13.7305 57.6009 22.5927 57.6009H45.799C54.6612 57.6009 59.8917 52.4999 59.8917 43.8795V43.0776H49.0195C43.9737 43.0776 39.8832 39.0885 39.8832 34.1676C39.8832 29.2468 43.9737 25.2577 49.0195 25.2577V25.1686ZM49.0195 28.9998H57.973C59.0327 28.9998 59.8917 29.8376 59.8917 30.8709V37.3752C59.8794 38.4036 59.0275 39.2343 57.973 39.2463H49.2251C46.6706 39.2798 44.4369 37.5742 43.8575 35.1477C43.5673 33.6415 43.9746 32.0871 44.9703 30.9014C45.9659 29.7156 47.4481 29.0195 49.0195 28.9998ZM49.4078 35.8383H50.2529C51.3377 35.8383 52.2172 34.9806 52.2172 33.9226C52.2172 32.8646 51.3377 32.007 50.2529 32.007H49.4078C48.8889 32.001 48.3892 32.1979 48.0202 32.5536C47.6511 32.9093 47.4434 33.3943 47.4435 33.9003C47.4434 34.962 48.3192 35.8261 49.4078 35.8383ZM20.6741 25.1686H35.178C36.2629 25.1686 37.1423 24.3109 37.1423 23.2529C37.1423 22.1949 36.2629 21.3373 35.178 21.3373H20.6741C19.5981 21.3372 18.7223 22.1814 18.7098 23.2306C18.7097 24.2923 19.5856 25.1564 20.6741 25.1686Z" fill="#867491"/>
</g>
<defs>
<filter id="filter0_b_16_1093" x="-7.5" y="-4.66418" width="83.3917" height="78.265" filterUnits="userSpaceOnUse" color-interpolation-filters="sRGB">
<feFlood flood-opacity="0" result="BackgroundImageFix"/>
<feGaussianBlur in="BackgroundImage" stdDeviation="8"/>
<feComposite in2="SourceAlpha" operator="in" result="effect1_backgroundBlur_16_1093"/>
<feBlend mode="normal" in="SourceGraphic" in2="effect1_backgroundBlur_16_1093" result="shape"/>
</filter>
</defs>
</svg>
